<svg id="Layer_1" data-name="Layer 1" xmlns="http://www.w3.org/2000/svg" viewBox="0 0 376.35 231.51"><defs><style>.cls-1{fill:#f15f23;}</style></defs><path class="cls-1" d="M219,100.24V42.7a1.86,1.86,0,0,1,2-2h18.22a1.93,1.93,0,0,1,2,2v57.54a1.87,1.87,0,0,1-2,2H221.07a1.93,1.93,0,0,1-2-2"/><path class="cls-1" d="M219,23.9V2.23a1.86,1.86,0,0,1,2-2h18.22a1.93,1.93,0,0,1,2,2V23.9a1.87,1.87,0,0,1-2,2H221.07a1.93,1.93,0,0,1-2-2"/><path class="cls-1" d="M51.8,38.34V26.51C51.8,9.65,41.46,0,26,0H2A1.86,1.86,0,0,0,0,2V99.92a1.93,1.93,0,0,0,2,2H20.26a1.87,1.87,0,0,0,2-2v-33c0-1.23.67-2,1.62-2h.41c1.09,0,1.5.81,1.63,2l3.95,32.49c.27,2,1.22,2.58,2.44,2.58H49.89c1.23,0,2-.68,1.77-2.86L45,59.41a2.75,2.75,0,0,1,.68-2.59c4.08-4.21,6.12-11.41,6.12-18.48M29.5,35.62C29.5,42.55,28.69,45,26,45H24.33a1.92,1.92,0,0,1-2-2V22a1.92,1.92,0,0,1,2-2H26c2.73,0,3.54,2.45,3.54,9.25Z"/><path class="cls-1" d="M60.35,2a1.86,1.86,0,0,1,2-2H95a1.93,1.93,0,0,1,2,2V17.67a1.93,1.93,0,0,1-2,2H84.69a1.93,1.93,0,0,0-2,2v17a1.92,1.92,0,0,0,2,2H95a1.93,1.93,0,0,1,2,2V58.46a1.93,1.93,0,0,1-2,2H84.69a1.92,1.92,0,0,0-2,2V80.21a1.93,1.93,0,0,0,2,2H95a1.93,1.93,0,0,1,2,2V99.92a1.93,1.93,0,0,1-2,2H62.39a1.93,1.93,0,0,1-2-2V2"/><path class="cls-1" d="M103,2a1.92,1.92,0,0,1,2-2h39.69c1.23,0,1.9.68,1.9,2V18a1.81,1.81,0,0,1-1.9,2H138a1.92,1.92,0,0,0-2,2v77.9a1.87,1.87,0,0,1-2.05,2H115.68a1.93,1.93,0,0,1-2-2V22a1.93,1.93,0,0,0-2-2h-6.52a1.85,1.85,0,0,1-2-2V2"/><path class="cls-1" d="M153.6,99.92V2a1.86,1.86,0,0,1,2-2h18.22a1.93,1.93,0,0,1,2,2V38.61a1.93,1.93,0,0,0,2,2h6.52a1.93,1.93,0,0,0,2-2V2a1.86,1.86,0,0,1,2-2h18.22a1.93,1.93,0,0,1,2,2V99.92a1.86,1.86,0,0,1-2,2H188.54a1.93,1.93,0,0,1-2-2V62.67a1.93,1.93,0,0,0-2-2h-6.52a1.93,1.93,0,0,0-2,2V99.92a1.86,1.86,0,0,1-2,2H155.64a1.93,1.93,0,0,1-2-2"/><path class="cls-1" d="M253.38,99.92V2a2,2,0,0,1,2.17-2h15.91a2,2,0,0,1,2.31,1.77L287,42c.27.81,1.36.81,1.36-.14V2a1.92,1.92,0,0,1,2-2h17.26a1.93,1.93,0,0,1,2,2v98a1.75,1.75,0,0,1-1.77,1.9H291.31a2.08,2.08,0,0,1-2.18-1.63L276.08,60.5c-.27-1-1.36-.82-1.36.13V99.92a1.93,1.93,0,0,1-2,2H255.42a1.93,1.93,0,0,1-2-2"/><path class="cls-1" d="M320.8,99.92V2a1.93,1.93,0,0,1,2-2h18.22a1.93,1.93,0,0,1,2,2v30c0,1,.95,1.09,1.22.14L351.39,2a2.31,2.31,0,0,1,2.31-2h20.39a1.54,1.54,0,0,1,1.23,2.17L364,38.88a5.61,5.61,0,0,0,0,3l12.24,58.05c.27,1.22-.14,2-1.09,2H354.79a2.3,2.3,0,0,1-2-2l-5.3-33.58a.55.55,0,0,0-1.09,0L343.5,76.67a12.74,12.74,0,0,0-.4,3.27v20a1.93,1.93,0,0,1-2,2H322.84a1.93,1.93,0,0,1-2-2"/><path class="cls-1" d="M114.27,131.59a1.86,1.86,0,0,1,2-2h32.62a1.92,1.92,0,0,1,2,2v15.63a1.92,1.92,0,0,1-2,2H138.6a1.93,1.93,0,0,0-2,2v17a1.93,1.93,0,0,0,2,2h10.33a1.93,1.93,0,0,1,2,2V188a1.93,1.93,0,0,1-2,2H138.6a1.92,1.92,0,0,0-2,2v17.68a1.93,1.93,0,0,0,2,2h10.33a1.92,1.92,0,0,1,2,2v15.64a1.93,1.93,0,0,1-2,2H116.31a1.93,1.93,0,0,1-2-2V131.59"/><path class="cls-1" d="M173.81,228.93l-17-96.93c-.4-2.45.82-2.45,1.77-2.45h18.9c1.36,0,1.9,0,2.17,2.17l6,53.3a.68.68,0,0,0,1.35,0l6-53.3c.27-2.17,1-2.17,2.31-2.17h18.76c.95,0,2.31,0,1.9,2.45l-17.13,96.93c-.27,2.17-.68,2.58-2.31,2.58H176.12c-1.63,0-1.91-.41-2.31-2.58"/><path class="cls-1" d="M222.61,131.59a1.86,1.86,0,0,1,2-2h32.62a1.92,1.92,0,0,1,2,2v15.63a1.92,1.92,0,0,1-2,2H246.94a1.93,1.93,0,0,0-2,2v17a1.93,1.93,0,0,0,2,2h10.33a1.93,1.93,0,0,1,2,2V188a1.93,1.93,0,0,1-2,2H246.94a1.92,1.92,0,0,0-2,2v17.68a1.93,1.93,0,0,0,2,2h10.33a1.92,1.92,0,0,1,2,2v15.64a1.93,1.93,0,0,1-2,2H224.65a1.93,1.93,0,0,1-2-2V131.59"/><path class="cls-1" d="M269.64,229.47V131.59a2,2,0,0,1,2.17-2h15.91a2,2,0,0,1,2.31,1.77l13.19,40.24c.27.81,1.36.81,1.36-.14V131.59a1.92,1.92,0,0,1,2-2h17.26a1.92,1.92,0,0,1,2,2v98a1.75,1.75,0,0,1-1.76,1.9H307.57a2.08,2.08,0,0,1-2.18-1.63l-13.05-39.83c-.27-1-1.36-.82-1.36.13v39.29a1.93,1.93,0,0,1-2,2H271.68a1.93,1.93,0,0,1-2-2"/><path class="cls-1" d="M332.71,131.59a1.93,1.93,0,0,1,2-2h39.7c1.22,0,1.9.68,1.9,2v15.9a1.82,1.82,0,0,1-1.9,2h-6.8a1.93,1.93,0,0,0-2,2v77.9a1.86,1.86,0,0,1-2,2H345.35a1.92,1.92,0,0,1-2-2v-77.9a1.93,1.93,0,0,0-2-2h-6.53a1.86,1.86,0,0,1-2-2v-15.9"/></svg>