<?xml version="1.0" encoding="UTF-8"?><svg id="Layer_2" xmlns="http://www.w3.org/2000/svg" viewBox="0 0 1102.83 136.87"><defs><style>.cls-1{stroke-width:0px;}</style></defs><g id="Layer_1-2"><path class="cls-1" d="M0,134.68V2.38h49.95c28.36,0,45.2,15,45.2,39.71,0,18.3-9.15,31.47-25.62,36.78l26.9,55.81h-19.95l-24.7-52.33H17.93v52.33H0ZM17.93,66.42h32.21c16.65,0,26.17-8.97,26.17-24.15s-9.88-23.79-26.35-23.79H17.93v47.94Z"/><path class="cls-1" d="M104.48,90.03c0-28,17.75-47.39,43.73-47.39s42.09,17.57,42.09,44.1v6.4l-69.17.18c1.28,18.85,11.16,29.28,28.18,29.28,13.36,0,22.14-5.49,25.07-15.74h16.1c-4.39,19.21-19.4,30.01-41.54,30.01-26.35,0-44.46-19.03-44.46-46.84ZM121.5,81.79h51.6c0-14.82-9.7-24.7-24.89-24.7s-24.52,8.97-26.72,24.7Z"/><path class="cls-1" d="M216.65,134.68V59.65h-17.57v-14.46h17.57v-28h17.2v28h17.57v14.46h-17.57v75.02h-17.2Z"/><path class="cls-1" d="M266.79,134.49V0h17.2v58.92c5.67-9.7,16.47-16.29,30.38-16.29,22.87,0,33.85,14.46,33.85,37.33v54.71h-17.2v-50.87c0-18.12-8.6-25.44-21.41-25.44-16.65,0-25.62,12.08-25.62,27.45v48.67h-17.2Z"/><path class="cls-1" d="M369.07,12.63c0-6.4,5.12-11.35,11.34-11.35s11.34,4.94,11.34,11.35-5.12,11.34-11.34,11.34-11.34-5.12-11.34-11.34ZM372,45.2h17.2v89.48h-17.2V45.2Z"/><path class="cls-1" d="M414.09,134.68V45.2h15.55l1.83,13.72c5.67-10.25,17.02-16.29,29.64-16.29,23.6,0,34.4,14.46,34.4,37.33v54.71h-17.2v-50.87c0-18.12-8.42-25.44-21.59-25.44-16.1,0-25.43,11.53-25.43,28.91v47.39h-17.2Z"/><path class="cls-1" d="M519.67,134.68V0h17.2v87.28l39.71-42.09h21.59l-34.22,35.68,34.03,53.8h-19.76l-26.17-41.35-15.19,15.92v25.43h-17.2Z"/><path class="cls-1" d="M665.14,134.68V2.38h80.7v16.47h-62.76v41.35h56.54v15.92h-56.54v41.9h62.76v16.65h-80.7Z"/><path class="cls-1" d="M755.53,45.2h18.3l19.58,49.95c3.11,8.42,5.67,15.92,7.14,21.41,1.46-5.86,4.39-13.54,7.5-21.41l19.95-49.95h17.93l-37.33,89.48h-17.02l-36.05-89.48Z"/><path class="cls-1" d="M849.77,90.03c0-28,17.75-47.39,43.73-47.39s42.09,17.57,42.09,44.1v6.4l-69.17.18c1.28,18.85,11.16,29.28,28.18,29.28,13.36,0,22.14-5.49,25.07-15.74h16.1c-4.39,19.21-19.4,30.01-41.54,30.01-26.35,0-44.47-19.03-44.47-46.84ZM866.78,81.79h51.6c0-14.82-9.7-24.7-24.89-24.7s-24.52,8.97-26.72,24.7Z"/><path class="cls-1" d="M954.8,134.68V45.2h15.55l1.83,13.72c5.67-10.25,17.02-16.29,29.64-16.29,23.6,0,34.4,14.46,34.4,37.33v54.71h-17.2v-50.87c0-18.12-8.42-25.44-21.59-25.44-16.1,0-25.43,11.53-25.43,28.91v47.39h-17.2Z"/><path class="cls-1" d="M1068.06,134.68V59.65h-17.57v-14.46h17.57v-28h17.2v28h17.57v14.46h-17.57v75.02h-17.2Z"/></g></svg>